<svg xmlns:dc="http://purl.org/dc/elements/1.1/" xmlns:cc="http://web.resource.org/cc/" xmlns:rdf="http://www.w3.org/1999/02/22-rdf-syntax-ns#" xmlns:svg="http://www.w3.org/2000/svg" xmlns="http://www.w3.org/2000/svg" xmlns:sodipodi="http://inkscape.sourceforge.net/DTD/sodipodi-0.dtd" xmlns:inkscape="http://www.inkscape.org/namespaces/inkscape" sodipodi:docname="&#xE6;.svg" sodipodi:docbase="/home/jake" inkscape:version="0.41" sodipodi:version="0.32" id="svg1974" height="29.000000px" width="48.000000px"><defs id="defs3"></defs><metadata></metadata><g inkscape:groupmode="layer" inkscape:label="Layer 1" id="layer1"><path id="text1984" d="M 45.062922,26.927346 C 41.180596,29.072353 37.440134,30.144855 33.841526,30.144856 C 27.991481,30.144855 23.905337,28.256897 21.583083,24.480976 C 18.002144,28.256897 14.048955,30.144855 9.7235037,30.144856 C 7.1175789,30.144855 4.9991660,29.471217 3.3682585,28.123941 C 1.7550691,26.758940 0.94847675,24.870982 0.94847888,22.460061 C 0.94847675,20.563246 1.4271140,18.958925 2.3843920,17.647093 C 3.3416629,16.317557 4.7864383,15.280509 6.7187225,14.535948 C 8.6687181,13.791416 11.168268,13.312779 14.217380,13.100035 L 19.907851,12.701170 L 19.907851,11.823667 C 19.907830,9.0227707 19.438056,7.1702673 18.498529,6.2661516 C 17.558962,5.3620822 15.883731,4.9100359 13.472832,4.9100114 C 12.231906,4.9100359 10.689631,5.1848092 8.8460012,5.7343319 C 7.0200788,6.2661748 5.4778032,6.8866305 4.2191699,7.5957008 L 2.8630297,4.0590999 C 4.3521193,3.1727600 6.1691681,2.4548042 8.3141815,1.9052302 C 10.476903,1.3379839 12.453498,1.0543471 14.243971,1.0543187 C 18.994873,1.0543471 21.928742,2.4016223 23.045587,5.0961483 C 25.226021,2.4016223 28.390345,1.0543471 32.538568,1.0543187 C 36.101723,1.0543471 38.982410,2.2863948 41.180638,4.7504655 C 43.396509,7.1968583 44.504466,10.503001 44.504511,14.668903 L 44.504511,15.918679 L 24.641046,15.918679 C 24.906930,22.743705 27.956026,26.156211 33.788345,26.156208 C 37.103316,26.156211 40.409458,25.154618 43.706782,23.151427 L 45.062922,26.927346 M 39.611770,12.328896 C 39.399002,10.059818 38.627864,8.2693603 37.298354,6.9575172 C 35.968768,5.6279918 34.364447,4.9632179 32.485386,4.9631934 C 28.248527,4.9632179 25.686931,7.4184496 24.800592,12.328896 L 39.611770,12.328896 M 20.492852,21.423013 C 19.978739,19.809836 19.721693,18.063696 19.721714,16.184589 C 16.069868,16.432784 13.623500,16.636648 12.382602,16.796181 C 11.159405,16.938012 9.9894024,17.230513 8.8725922,17.673684 C 7.7557619,18.116878 6.9048513,18.710743 6.3198577,19.455280 C 5.7525764,20.199837 5.4689396,21.130520 5.4689462,22.247333 C 5.4689396,23.488252 5.9298495,24.454390 6.8516774,25.145750 C 7.7734892,25.819392 9.0321279,26.156211 10.627597,26.156208 C 12.293952,26.156211 14.057819,25.713029 15.919203,24.826659 C 17.798280,23.940298 19.322829,22.805750 20.492852,21.423013" style="font-size:54.458336;font-style:normal;font-variant:normal;font-weight:normal;font-stretch:normal;fill:#000000;fill-opacity:1.0000000;stroke:none;stroke-width:1.0000000px;stroke-linecap:butt;stroke-linejoin:miter;stroke-opacity:1.0000000;font-family:Earwig Factory;text-anchor:start;writing-mode:lr-tb" transform="scale(1.054320,0.948479)"></path></g></svg>